# xmcd
#
# Track frame offsets: 
#        150
#        1800
#        44145
#        96644
#        141446
#        178924
#
# Disc length: 2611 seconds
#
# Revision: 3
# Processed by: cddbd v1.5.1PL2 Copyright (c) Steve Scherf et al.
# Submitted via: ExactAudioCopy v0.95b4
#
DISCID=580a3106
DTITLE=Kenny Burrell - On View At The Five Spot Cafe
DYEAR=1959
DGENRE=Jazz
TTITLE0=Intrduction by Kenny Burrell
TTITLE1=Birk's Works
TTITLE2=Hullelujah
TTITLE3=Lady Be Good
TTITLE4=Lover Man
TTITLE5=36-23-36
EXTD=Blue Note ST-84021
EXTT0=
EXTT1=
EXTT2=
EXTT3=
EXTT4=
EXTT5=
PLAYORDER=
